{
  "source": "C:\\Users\\Peter\\Desktop\\stuff\\MIUN\\quantitative_research\\video_compression\\videos\\BVI-HD\\BVI-HD_CDVL_videos\\ORIG\\CloudsZoom_1920x1080_60fps.mp4",
  "output": "C:\\Users\\Peter\\Desktop\\stuff\\MIUN\\quantitative_research\\video_compression\\compressed_videos\\BVI-HD\\hevc\\1\\CloudsZoom_1920x1080_60fps_hevc.mp4",
  "codec": "hevc",
  "ok": "Input #0, mov,mp4,m4a,3gp,3g2,mj2, from 'C:\\Users\\Peter\\Desktop\\stuff\\MIUN\\quantitative_research\\video_compression\\videos\\BVI-HD\\BVI-HD_CDVL_videos\\ORIG\\CloudsZoom_1920x1080_60fps.mp4':\n  Metadata:\n    major_brand     : isom\n    minor_version   : 512\n    compatible_brands: isomiso2avc1mp41\n    encoder         : Lavf54.28.101\n  Duration: 00:00:05.00, start: 0.000000, bitrate: 32589 kb/s\n  Stream #0:0[0x1](und): Video: h264 (High 4:4:4 Predictive) (avc1 / 0x31637661), yuv420p(progressive), 1920x1080, 32586 kb/s, 60 fps, 60 tbr, 60 tbn (default)\n    Metadata:\n      handler_name    : VideoHandler\n      vendor_id       : [0][0][0][0]\n[out#0/mp4 @ 0000019ad659aac0] Codec AVOption b:a (set bitrate (in bits/s)) has not been used for any stream. The most likely reason is either wrong type (e.g. a video option with no video streams) or that it is a private option of some decoder which was not actually used for any stream.\nStream mapping:\n  Stream #0:0 -> #0:0 (h264 (native) -> hevc (libx265))\nPress [q] to stop, [?] for help\n[libx265 @ 0000019ad6de00c0] Unknown option: \"aq-mode.\nx265 [info]: HEVC encoder version 4.1+190-8f11c33ac\nx265 [info]: build info [Windows][GCC 15.1.0][64 bit] 10bit\nx265 [info]: using cpu capabilities: MMX2 SSE2Fast LZCNT SSSE3 SSE4.2 AVX FMA3 BMI2 AVX2\nx265 [info]: Main 10 profile, Level-4.1 (Main tier)\nx265 [info]: Thread pool created using 12 threads\nx265 [info]: Slices                              : 1\nx265 [info]: frame threads / pool features       : 3 / wpp(17 rows)\nx265 [info]: Coding QT: max CU size, min CU size : 64 / 8\nx265 [info]: Residual QT: max TU size, max depth : 32 / 1 inter / 1 intra\nx265 [info]: ME / range / subpel / merge         : star / 57 / 3 / 3\nx265 [info]: Keyframe min / max / scenecut / bias  : 25 / 250 / 40 / 5.00 \nx265 [info]: Lookahead / bframes / badapt        : 25 / 4 / 2\nx265 [info]: b-pyramid / weightp / weightb       : 1 / 1 / 0\nx265 [info]: References / ref-limit  cu / depth  : 4 / on / on\nx265 [info]: AQ: mode / str / qg-size / cu-tree  : 2 / 1.0 / 32 / 1\nx265 [info]: Rate Control / qCompress            : ABR-1000 kbps / 0.60\nx265 [info]: VBV/HRD buffer / max-rate / init    : 1000 / 1000 / 0.750\nx265 [info]: tools: rect limit-modes rd=4 psy-rd=2.00 rdoq=2 psy-rdoq=1.00\nx265 [info]: tools: rskip mode=1 signhide tmvp strong-intra-smoothing lslices=4\nx265 [info]: tools: deblock sao dhdr10-info\nOutput #0, mp4, to 'C:\\Users\\Peter\\Desktop\\stuff\\MIUN\\quantitative_research\\video_compression\\compressed_videos\\BVI-HD\\hevc\\1\\CloudsZoom_1920x1080_60fps_hevc.mp4':\n  Metadata:\n    major_brand     : isom\n    minor_version   : 512\n    compatible_brands: isomiso2avc1mp41\n    encoder         : Lavf62.3.100\n  Stream #0:0(und): Video: hevc (hev1 / 0x31766568), yuv420p10le(tv, progressive), 1920x1080, q=2-31, 1000 kb/s, 60 fps, 15360 tbn (default)\n    Metadata:\n      encoder         : Lavc62.11.100 libx265\n      handler_name    : VideoHandler\n      vendor_id       : [0][0][0][0]\n    Side data:\n      cpb: bitrate max/min/avg: 1000000/0/1000000 buffer size: 1000000 vbv_delay: N/A\nframe=    0 fps=0.0 q=0.0 size=       0KiB time=N/A bitrate=N/A speed=N/A elapsed=0:00:00.52    \nframe=    0 fps=0.0 q=0.0 size=       0KiB time=N/A bitrate=N/A speed=N/A elapsed=0:00:01.04    \nframe=    0 fps=0.0 q=0.0 size=       0KiB time=N/A bitrate=N/A speed=N/A elapsed=0:00:01.58    \nframe=    0 fps=0.0 q=0.0 size=       0KiB time=N/A bitrate=N/A speed=N/A elapsed=0:00:02.10    \nframe=    0 fps=0.0 q=0.0 size=       0KiB time=N/A bitrate=N/A speed=N/A elapsed=0:00:02.62    \nframe=    0 fps=0.0 q=0.0 size=       0KiB time=N/A bitrate=N/A speed=N/A elapsed=0:00:03.19    \nframe=    0 fps=0.0 q=0.0 size=       0KiB time=N/A bitrate=N/A speed=N/A elapsed=0:00:03.71    \nframe=    0 fps=0.0 q=0.0 size=       0KiB time=N/A bitrate=N/A speed=N/A elapsed=0:00:04.25    \nframe=    0 fps=0.0 q=0.0 size=       0KiB time=N/A bitrate=N/A speed=N/A elapsed=0:00:04.79    \nframe=    0 fps=0.0 q=0.0 size=       0KiB time=N/A bitrate=N/A speed=N/A elapsed=0:00:05.33    \nframe=    0 fps=0.0 q=0.0 size=       0KiB time=N/A bitrate=N/A speed=N/A elapsed=0:00:05.86    \nframe=    1 fps=0.2 q=43.1 size=       0KiB time=-00:00:00.01 bitrate=N/A speed=N/A elapsed=0:00:06.38    \nframe=    1 fps=0.1 q=43.1 size=       0KiB time=-00:00:00.01 bitrate=N/A speed=N/A elapsed=0:00:06.90    \nframe=    1 fps=0.1 q=43.1 size=       0KiB time=-00:00:00.01 bitrate=N/A speed=N/A elapsed=0:00:07.44    \nframe=    2 fps=0.3 q=51.0 size=       0KiB time=00:00:00.00 bitrate=N/A speed=   0x elapsed=0:00:07.97    \nframe=    2 fps=0.2 q=51.0 size=       0KiB time=00:00:00.00 bitrate=N/A speed=   0x elapsed=0:00:08.49    \nframe=    3 fps=0.3 q=46.9 size=       0KiB time=00:00:00.01 bitrate=  21.1kbits/s speed=0.00184x elapsed=0:00:09.05    \nframe=    4 fps=0.4 q=46.9 size=       0KiB time=00:00:00.03 bitrate=  10.6kbits/s speed=0.00347x elapsed=0:00:09.61    \nframe=    4 fps=0.4 q=46.9 size=       0KiB time=00:00:00.03 bitrate=  10.6kbits/s speed=0.00328x elapsed=0:00:10.15    \nframe=    5 fps=0.5 q=46.9 size=       0KiB time=00:00:00.05 bitrate=   7.0kbits/s speed=0.00468x elapsed=0:00:10.67    \nframe=    5 fps=0.4 q=46.9 size=       0KiB time=00:00:00.05 bitrate=   7.0kbits/s speed=0.00446x elapsed=0:00:11.20    \nframe=    5 fps=0.4 q=46.9 size=       0KiB time=00:00:00.05 bitrate=   7.0kbits/s speed=0.00426x elapsed=0:00:11.73    \nframe=    6 fps=0.5 q=46.9 size=       0KiB time=00:00:00.06 bitrate=   5.3kbits/s speed=0.00544x elapsed=0:00:12.25    \nframe=    7 fps=0.5 q=45.6 size=       0KiB time=00:00:00.08 bitrate=   4.2kbits/s speed=0.0065x elapsed=0:00:12.82    \nframe=    7 fps=0.5 q=45.6 size=       0KiB time=00:00:00.08 bitrate=   4.2kbits/s speed=0.00624x elapsed=0:00:13.34    \nframe=    8 fps=0.6 q=43.0 size=       0KiB time=00:00:00.10 bitrate=   3.5kbits/s speed=0.00718x elapsed=0:00:13.91    \nframe=    9 fps=0.6 q=44.0 size=       0KiB time=00:00:00.11 bitrate=   3.0kbits/s speed=0.00807x elapsed=0:00:14.44    \nframe=   10 fps=0.7 q=40.6 size=       0KiB time=00:00:00.13 bitrate=   2.6kbits/s speed=0.0089x elapsed=0:00:14.97    \nframe=   10 fps=0.6 q=40.6 size=       0KiB time=00:00:00.13 bitrate=   2.6kbits/s speed=0.0086x elapsed=0:00:15.49    \nframe=   10 fps=0.6 q=40.6 size=       0KiB time=00:00:00.13 bitrate=   2.6kbits/s speed=0.00831x elapsed=0:00:16.04    \nframe=   12 fps=0.7 q=39.3 size=       0KiB time=00:00:00.16 bitrate=   2.1kbits/s speed=0.0101x elapsed=0:00:16.56    \nframe=   13 fps=0.8 q=39.0 size=       0KiB time=00:00:00.18 bitrate=   1.9kbits/s speed=0.0107x elapsed=0:00:17.09    \nframe=   14 fps=0.8 q=39.8 size=       0KiB time=00:00:00.20 bitrate=   1.8kbits/s speed=0.0113x elapsed=0:00:17.62    \nframe=   15 fps=0.8 q=35.6 size=       0KiB time=00:00:00.21 bitrate=   1.6kbits/s speed=0.0119x elapsed=0:00:18.14    \nframe=   16 fps=0.9 q=34.3 size=       0KiB time=00:00:00.23 bitrate=   1.5kbits/s speed=0.0125x elapsed=0:00:18.65    \nframe=   16 fps=0.8 q=34.3 size=       0KiB time=00:00:00.23 bitrate=   1.5kbits/s speed=0.0122x elapsed=0:00:19.18    \nframe=   17 fps=0.9 q=30.6 size=       0KiB time=00:00:00.25 bitrate=   1.4kbits/s speed=0.0127x elapsed=0:00:19.69    \nframe=   17 fps=0.8 q=30.6 size=       0KiB time=00:00:00.25 bitrate=   1.4kbits/s speed=0.0124x elapsed=0:00:20.22    \nframe=   18 fps=0.9 q=34.9 size=       0KiB time=00:00:00.26 bitrate=   1.3kbits/s speed=0.0129x elapsed=0:00:20.74    \nframe=   19 fps=0.9 q=36.0 size=       0KiB time=00:00:00.28 bitrate=   1.2kbits/s speed=0.0133x elapsed=0:00:21.26    \nframe=   20 fps=0.9 q=31.5 size=       0KiB time=00:00:00.30 bitrate=   1.2kbits/s speed=0.0138x elapsed=0:00:21.78    \nframe=   21 fps=0.9 q=28.9 size=       0KiB time=00:00:00.31 bitrate=   1.1kbits/s speed=0.0142x elapsed=0:00:22.31    \nframe=   22 fps=1.0 q=30.1 size=       0KiB time=00:00:00.33 bitrate=   1.1kbits/s speed=0.0146x elapsed=0:00:22.83    \nframe=   23 fps=1.0 q=31.4 size=       0KiB time=00:00:00.35 bitrate=   1.0kbits/s speed=0.015x elapsed=0:00:23.37    \nframe=   24 fps=1.0 q=32.2 size=       0KiB time=00:00:00.36 bitrate=   1.0kbits/s speed=0.0153x elapsed=0:00:23.90    \nframe=   24 fps=1.0 q=32.2 size=       0KiB time=00:00:00.36 bitrate=   1.0kbits/s speed=0.015x elapsed=0:00:24.42    \nframe=   25 fps=1.0 q=27.2 size=       0KiB time=00:00:00.38 bitrate=   0.9kbits/s speed=0.0154x elapsed=0:00:24.93    \nframe=   26 fps=1.0 q=27.6 size=       0KiB time=00:00:00.40 bitrate=   0.9kbits/s speed=0.0157x elapsed=0:00:25.46    \nframe=   26 fps=1.0 q=27.6 size=       0KiB time=00:00:00.40 bitrate=   0.9kbits/s speed=0.0154x elapsed=0:00:25.99    \nframe=   27 fps=1.0 q=29.3 size=       0KiB time=00:00:00.41 bitrate=   0.8kbits/s speed=0.0157x elapsed=0:00:26.51    \nframe=   27 fps=1.0 q=29.3 size=       0KiB time=00:00:00.41 bitrate=   0.8kbits/s speed=0.0154x elapsed=0:00:27.03    \nframe=   28 fps=1.0 q=29.4 size=       0KiB time=00:00:00.43 bitrate=   0.8kbits/s speed=0.0157x elapsed=0:00:27.55    \nframe=   29 fps=1.0 q=29.3 size=       0KiB time=00:00:00.45 bitrate=   0.8kbits/s speed=0.016x elapsed=0:00:28.08    \nframe=   29 fps=1.0 q=29.3 size=       0KiB time=00:00:00.45 bitrate=   0.8kbits/s speed=0.0157x elapsed=0:00:28.59    \nframe=   30 fps=1.0 q=24.8 size=       0KiB time=00:00:00.46 bitrate=   0.8kbits/s speed=0.016x elapsed=0:00:29.11    \nframe=   32 fps=1.1 q=29.7 size=       0KiB time=00:00:00.50 bitrate=   0.7kbits/s speed=0.0169x elapsed=0:00:29.65    \nframe=   32 fps=1.1 q=29.7 size=       0KiB time=00:00:00.50 bitrate=   0.7kbits/s speed=0.0166x elapsed=0:00:30.17    \nframe=   33 fps=1.1 q=29.3 size=       0KiB time=00:00:00.51 bitrate=   0.7kbits/s speed=0.0168x elapsed=0:00:30.70    \nframe=   33 fps=1.1 q=29.3 size=       0KiB time=00:00:00.51 bitrate=   0.7kbits/s speed=0.0165x elapsed=0:00:31.22    \nframe=   34 fps=1.1 q=26.8 size=       0KiB time=00:00:00.53 bitrate=   0.7kbits/s speed=0.0168x elapsed=0:00:31.75    \nframe=   35 fps=1.1 q=23.8 size=       0KiB time=00:00:00.55 bitrate=   0.6kbits/s speed=0.017x elapsed=0:00:32.27    \nframe=   36 fps=1.1 q=24.6 size=       0KiB time=00:00:00.56 bitrate=   0.6kbits/s speed=0.0173x elapsed=0:00:32.79    \nframe=   37 fps=1.1 q=29.1 size=       0KiB time=00:00:00.58 bitrate=   0.6kbits/s speed=0.0175x elapsed=0:00:33.31    \nframe=   38 fps=1.1 q=28.9 size=       0KiB time=00:00:00.60 bitrate=   0.6kbits/s speed=0.0177x elapsed=0:00:33.83    \nframe=   39 fps=1.1 q=25.9 size=       0KiB time=00:00:00.61 bitrate=   0.6kbits/s speed=0.0179x elapsed=0:00:34.35    \nframe=   40 fps=1.1 q=23.7 size=       0KiB time=00:00:00.63 bitrate=   0.6kbits/s speed=0.0182x elapsed=0:00:34.87    \nframe=   40 fps=1.1 q=23.7 size=       0KiB time=00:00:00.63 bitrate=   0.6kbits/s speed=0.0179x elapsed=0:00:35.38    \nframe=   40 fps=1.1 q=23.7 size=       0KiB time=00:00:00.63 bitrate=   0.6kbits/s speed=0.0176x elapsed=0:00:35.90    \nframe=   41 fps=1.1 q=25.6 size=       0KiB time=00:00:00.65 bitrate=   0.5kbits/s speed=0.0178x elapsed=0:00:36.42    \nframe=   42 fps=1.1 q=30.0 size=       0KiB time=00:00:00.66 bitrate=   0.5kbits/s speed=0.018x elapsed=0:00:36.94    \nframe=   42 fps=1.1 q=30.0 size=       0KiB time=00:00:00.66 bitrate=   0.5kbits/s speed=0.0178x elapsed=0:00:37.46    \nframe=   43 fps=1.1 q=25.8 size=       0KiB time=00:00:00.68 bitrate=   0.5kbits/s speed=0.018x elapsed=0:00:37.99    \nframe=   44 fps=1.1 q=25.8 size=       0KiB time=00:00:00.70 bitrate=   0.5kbits/s speed=0.0182x elapsed=0:00:38.49    \nframe=   44 fps=1.1 q=25.8 size=       0KiB time=00:00:00.70 bitrate=   0.5kbits/s speed=0.0179x elapsed=0:00:39.01    \nframe=   45 fps=1.1 q=22.6 size=       0KiB time=00:00:00.71 bitrate=   0.5kbits/s speed=0.0181x elapsed=0:00:39.52    \nframe=   46 fps=1.1 q=23.5 size=       0KiB time=00:00:00.73 bitrate=   0.5kbits/s speed=0.0183x elapsed=0:00:40.04    \nframe=   46 fps=1.1 q=23.5 size=       0KiB time=00:00:00.73 bitrate=   0.5kbits/s speed=0.0181x elapsed=0:00:40.57    \nframe=   47 fps=1.1 q=28.8 size=       0KiB time=00:00:00.75 bitrate=   0.5kbits/s speed=0.0183x elapsed=0:00:41.09    \nframe=   47 fps=1.1 q=28.8 size=       0KiB time=00:00:00.75 bitrate=   0.5kbits/s speed=0.018x elapsed=0:00:41.62    \nframe=   48 fps=1.1 q=25.5 size=       0KiB time=00:00:00.76 bitrate=   0.5kbits/s speed=0.0182x elapsed=0:00:42.16    \nframe=   48 fps=1.1 q=25.5 size=       0KiB time=00:00:00.76 bitrate=   0.5kbits/s speed=0.018x elapsed=0:00:42.66    \nframe=   49 fps=1.1 q=24.7 size=       0KiB time=00:00:00.78 bitrate=   0.4kbits/s speed=0.0181x elapsed=0:00:43.19    \nframe=   49 fps=1.1 q=24.7 size=       0KiB time=00:00:00.78 bitrate=   0.4kbits/s speed=0.0179x elapsed=0:00:43.72    \nframe=   50 fps=1.1 q=22.4 size=       0KiB time=00:00:00.80 bitrate=   0.4kbits/s speed=0.0181x elapsed=0:00:44.23    \nframe=   50 fps=1.1 q=22.4 size=       0KiB time=00:00:00.80 bitrate=   0.4kbits/s speed=0.0179x elapsed=0:00:44.77    \nframe=   51 fps=1.1 q=22.5 size=       0KiB time=00:00:00.81 bitrate=   0.4kbits/s speed=0.018x elapsed=0:00:45.29    \nframe=   52 fps=1.1 q=23.2 size=       0KiB time=00:00:00.83 bitrate=   0.4kbits/s speed=0.0182x elapsed=0:00:45.82    \nframe=   52 fps=1.1 q=23.2 size=       0KiB time=00:00:00.83 bitrate=   0.4kbits/s speed=0.018x elapsed=0:00:46.35    \nframe=   53 fps=1.1 q=25.2 size=       0KiB time=00:00:00.85 bitrate=   0.4kbits/s speed=0.0181x elapsed=0:00:46.87    \nframe=   54 fps=1.1 q=23.6 size=       0KiB time=00:00:00.86 bitrate=   0.4kbits/s speed=0.0183x elapsed=0:00:47.39    \nframe=   54 fps=1.1 q=23.6 size=       0KiB time=00:00:00.86 bitrate=   0.4kbits/s speed=0.0181x elapsed=0:00:47.90    \nframe=   54 fps=1.1 q=23.6 size=       0KiB time=00:00:00.86 bitrate=   0.4kbits/s speed=0.0179x elapsed=0:00:48.43    \nframe=   54 fps=1.1 q=23.6 size=       0KiB time=00:00:00.86 bitrate=   0.4kbits/s speed=0.0177x elapsed=0:00:48.95    \nframe=   55 fps=1.1 q=23.5 size=       0KiB time=00:00:00.88 bitrate=   0.4kbits/s speed=0.0179x elapsed=0:00:49.46    \nframe=   56 fps=1.1 q=24.0 size=       0KiB time=00:00:00.90 bitrate=   0.4kbits/s speed=0.018x elapsed=0:00:49.99    \nframe=   57 fps=1.1 q=24.8 size=       0KiB time=00:00:00.91 bitrate=   0.4kbits/s speed=0.0181x elapsed=0:00:50.53    \nframe=   58 fps=1.1 q=25.6 size=       0KiB time=00:00:00.93 bitrate=   0.4kbits/s speed=0.0183x elapsed=0:00:51.04    \nframe=   59 fps=1.1 q=23.8 size=       0KiB time=00:00:00.95 bitrate=   0.4kbits/s speed=0.0184x elapsed=0:00:51.56    \nframe=   59 fps=1.1 q=23.8 size=       0KiB time=00:00:00.95 bitrate=   0.4kbits/s speed=0.0182x elapsed=0:00:52.07    \nframe=   59 fps=1.1 q=23.8 size=       0KiB time=00:00:00.95 bitrate=   0.4kbits/s speed=0.0181x elapsed=0:00:52.59    \nframe=   60 fps=1.1 q=21.1 size=       0KiB time=00:00:00.96 bitrate=   0.4kbits/s speed=0.0182x elapsed=0:00:53.11    \nframe=   60 fps=1.1 q=21.1 size=       0KiB time=00:00:00.96 bitrate=   0.4kbits/s speed=0.018x elapsed=0:00:53.62    \nframe=   61 fps=1.1 q=22.2 size=       0KiB time=00:00:00.98 bitrate=   0.4kbits/s speed=0.0182x elapsed=0:00:54.15    \nframe=   62 fps=1.1 q=23.2 size=       0KiB time=00:00:01.00 bitrate=   0.4kbits/s speed=0.0183x elapsed=0:00:54.68    \nframe=   62 fps=1.1 q=23.2 size=       0KiB time=00:00:01.00 bitrate=   0.4kbits/s speed=0.0181x elapsed=0:00:55.18    \nframe=   63 fps=1.1 q=26.0 size=       0KiB time=00:00:01.01 bitrate=   0.3kbits/s speed=0.0182x elapsed=0:00:55.72    \nframe=   64 fps=1.1 q=22.9 size=       0KiB time=00:00:01.03 bitrate=   0.3kbits/s speed=0.0184x elapsed=0:00:56.24    \nframe=   64 fps=1.1 q=22.9 size=       0KiB time=00:00:01.03 bitrate=   0.3kbits/s speed=0.0182x elapsed=0:00:56.76    \nframe=   66 fps=1.2 q=21.8 size=       0KiB time=00:00:01.06 bitrate=   0.3kbits/s speed=0.0186x elapsed=0:00:57.28    \nframe=   66 fps=1.1 q=21.8 size=       0KiB time=00:00:01.06 bitrate=   0.3kbits/s speed=0.0185x elapsed=0:00:57.79    \nframe=   67 fps=1.1 q=23.2 size=       0KiB time=00:00:01.08 bitrate=   0.3kbits/s speed=0.0186x elapsed=0:00:58.31    \nframe=   67 fps=1.1 q=23.2 size=       0KiB time=00:00:01.08 bitrate=   0.3kbits/s speed=0.0184x elapsed=0:00:58.83    \nframe=   67 fps=1.1 q=23.2 size=       0KiB time=00:00:01.08 bitrate=   0.3kbits/s speed=0.0182x elapsed=0:00:59.36    \nframe=   68 fps=1.1 q=24.7 size=       0KiB time=00:00:01.10 bitrate=   0.3kbits/s speed=0.0184x elapsed=0:00:59.88    \nframe=   68 fps=1.1 q=24.7 size=       0KiB time=00:00:01.10 bitrate=   0.3kbits/s speed=0.0182x elapsed=0:01:00.41    \nframe=   69 fps=1.1 q=22.4 size=       0KiB time=00:00:01.11 bitrate=   0.3kbits/s speed=0.0183x elapsed=0:01:00.91    \nframe=   69 fps=1.1 q=22.4 size=       0KiB time=00:00:01.11 bitrate=   0.3kbits/s speed=0.0182x elapsed=0:01:01.43    \nframe=   70 fps=1.1 q=21.9 size=       0KiB time=00:00:01.13 bitrate=   0.3kbits/s speed=0.0183x elapsed=0:01:01.98    \nframe=   71 fps=1.1 q=21.9 size=       0KiB time=00:00:01.15 bitrate=   0.3kbits/s speed=0.0184x elapsed=0:01:02.50    \nframe=   72 fps=1.1 q=20.4 size=       0KiB time=00:00:01.16 bitrate=   0.3kbits/s speed=0.0185x elapsed=0:01:03.03    \nframe=   73 fps=1.1 q=21.9 size=       0KiB time=00:00:01.18 bitrate=   0.3kbits/s speed=0.0186x elapsed=0:01:03.55    \nframe=   74 fps=1.2 q=22.3 size=       0KiB time=00:00:01.20 bitrate=   0.3kbits/s speed=0.0187x elapsed=0:01:04.06    \nframe=   74 fps=1.1 q=22.3 size=       0KiB time=00:00:01.20 bitrate=   0.3kbits/s speed=0.0186x elapsed=0:01:04.57    \nframe=   74 fps=1.1 q=22.3 size=       0KiB time=00:00:01.20 bitrate=   0.3kbits/s speed=0.0184x elapsed=0:01:05.10    \nframe=   74 fps=1.1 q=22.3 size=       0KiB time=00:00:01.20 bitrate=   0.3kbits/s speed=0.0183x elapsed=0:01:05.62    \nframe=   75 fps=1.1 q=24.6 size=       0KiB time=00:00:01.21 bitrate=   0.3kbits/s speed=0.0184x elapsed=0:01:06.15    \nframe=   76 fps=1.1 q=23.2 size=       0KiB time=00:00:01.23 bitrate=   0.3kbits/s speed=0.0185x elapsed=0:01:06.66    \nframe=   77 fps=1.1 q=19.8 size=       0KiB time=00:00:01.25 bitrate=   0.3kbits/s speed=0.0186x elapsed=0:01:07.19    \nframe=   78 fps=1.2 q=22.5 size=       0KiB time=00:00:01.26 bitrate=   0.3kbits/s speed=0.0187x elapsed=0:01:07.70    \nframe=   79 fps=1.2 q=21.4 size=       0KiB time=00:00:01.28 bitrate=   0.3kbits/s speed=0.0188x elapsed=0:01:08.22    \nframe=   80 fps=1.2 q=22.4 size=       0KiB time=00:00:01.30 bitrate=   0.3kbits/s speed=0.0189x elapsed=0:01:08.73    \nframe=   82 fps=1.2 q=18.7 size=       0KiB time=00:00:01.33 bitrate=   0.3kbits/s speed=0.0193x elapsed=0:01:09.24    \nframe=   84 fps=1.2 q=23.7 size=       0KiB time=00:00:01.36 bitrate=   0.3kbits/s speed=0.0196x elapsed=0:01:09.76    \nframe=   84 fps=1.2 q=23.7 size=       0KiB time=00:00:01.36 bitrate=   0.3kbits/s speed=0.0194x elapsed=0:01:10.28    \nframe=   85 fps=1.2 q=25.7 size=       0KiB time=00:00:01.38 bitrate=   0.3kbits/s speed=0.0195x elapsed=0:01:10.80    \nframe=   86 fps=1.2 q=24.9 size=       0KiB time=00:00:01.40 bitrate=   0.3kbits/s speed=0.0196x elapsed=0:01:11.32    \nframe=   87 fps=1.2 q=18.2 size=       0KiB time=00:00:01.41 bitrate=   0.2kbits/s speed=0.0197x elapsed=0:01:11.84    \nframe=   89 fps=1.2 q=25.1 size=       0KiB time=00:00:01.45 bitrate=   0.2kbits/s speed=0.02x elapsed=0:01:12.35    \nframe=   89 fps=1.2 q=25.1 size=       0KiB time=00:00:01.45 bitrate=   0.2kbits/s speed=0.0199x elapsed=0:01:12.87    \nframe=   91 fps=1.2 q=25.7 size=       0KiB time=00:00:01.48 bitrate=   0.2kbits/s speed=0.0202x elapsed=0:01:13.39    \nframe=   93 fps=1.3 q=24.2 size=       0KiB time=00:00:01.51 bitrate=   0.2kbits/s speed=0.0205x elapsed=0:01:13.91    \nframe=   94 fps=1.3 q=26.3 size=       0KiB time=00:00:01.53 bitrate=   0.2kbits/s speed=0.0206x elapsed=0:01:14.44    \nframe=   94 fps=1.3 q=26.3 size=       0KiB time=00:00:01.53 bitrate=   0.2kbits/s speed=0.0205x elapsed=0:01:14.96    \nframe=   96 fps=1.3 q=25.7 size=       0KiB time=00:00:01.56 bitrate=   0.2kbits/s speed=0.0208x elapsed=0:01:15.46    \nframe=   97 fps=1.3 q=18.4 size=       0KiB time=00:00:01.58 bitrate=   0.2kbits/s speed=0.0208x elapsed=0:01:15.98    \nframe=   99 fps=1.3 q=26.1 size=       0KiB time=00:00:01.61 bitrate=   0.2kbits/s speed=0.0211x elapsed=0:01:16.50    \nframe=   99 fps=1.3 q=26.1 size=       0KiB time=00:00:01.61 bitrate=   0.2kbits/s speed=0.021x elapsed=0:01:17.02    \nframe=  101 fps=1.3 q=25.7 size=       0KiB time=00:00:01.65 bitrate=   0.2kbits/s speed=0.0213x elapsed=0:01:17.52    \nframe=  102 fps=1.3 q=18.4 size=       0KiB time=00:00:01.66 bitrate=   0.2kbits/s speed=0.0214x elapsed=0:01:18.04    \nframe=  104 fps=1.3 q=25.7 size=       0KiB time=00:00:01.70 bitrate=   0.2kbits/s speed=0.0216x elapsed=0:01:18.56    \nframe=  105 fps=1.3 q=25.2 size=       0KiB time=00:00:01.71 bitrate=   0.2kbits/s speed=0.0217x elapsed=0:01:19.07    \nframe=  106 fps=1.3 q=25.6 size=       0KiB time=00:00:01.73 bitrate=   0.2kbits/s speed=0.0218x elapsed=0:01:19.59    \nframe=  108 fps=1.3 q=24.9 size=       0KiB time=00:00:01.76 bitrate=   0.2kbits/s speed=0.0221x elapsed=0:01:20.11    \nframe=  109 fps=1.4 q=26.3 size=       0KiB time=00:00:01.78 bitrate=   0.2kbits/s speed=0.0221x elapsed=0:01:20.63    \nframe=  110 fps=1.4 q=26.3 size=       0KiB time=00:00:01.80 bitrate=   0.2kbits/s speed=0.0222x elapsed=0:01:21.14    \nframe=  111 fps=1.4 q=25.8 size=       0KiB time=00:00:01.81 bitrate=   0.2kbits/s speed=0.0222x elapsed=0:01:21.65    \nframe=  113 fps=1.4 q=24.6 size=       0KiB time=00:00:01.85 bitrate=   0.2kbits/s speed=0.0225x elapsed=0:01:22.17    \nframe=  114 fps=1.4 q=26.9 size=       0KiB time=00:00:01.86 bitrate=   0.2kbits/s speed=0.0226x elapsed=0:01:22.68    \nframe=  115 fps=1.4 q=25.9 size=       0KiB time=00:00:01.88 bitrate=   0.2kbits/s speed=0.0226x elapsed=0:01:23.20    \nframe=  116 fps=1.4 q=27.3 size=       0KiB time=00:00:01.90 bitrate=   0.2kbits/s speed=0.0227x elapsed=0:01:23.73    \nframe=  117 fps=1.4 q=17.9 size=       0KiB time=00:00:01.91 bitrate=   0.2kbits/s speed=0.0228x elapsed=0:01:24.24    \nframe=  118 fps=1.4 q=24.8 size=       0KiB time=00:00:01.93 bitrate=   0.2kbits/s speed=0.0228x elapsed=0:01:24.76    \nframe=  119 fps=1.4 q=27.0 size=       0KiB time=00:00:01.95 bitrate=   0.2kbits/s speed=0.0229x elapsed=0:01:25.30    \nframe=  120 fps=1.4 q=26.7 size=       0KiB time=00:00:01.96 bitrate=   0.2kbits/s speed=0.0229x elapsed=0:01:25.82    \nframe=  122 fps=1.4 q=17.7 size=       0KiB time=00:00:02.00 bitrate=   0.2kbits/s speed=0.0232x elapsed=0:01:26.34    \nframe=  123 fps=1.4 q=24.5 size=       0KiB time=00:00:02.01 bitrate=   0.2kbits/s speed=0.0232x elapsed=0:01:26.86    \nframe=  124 fps=1.4 q=27.5 size=       0KiB time=00:00:02.03 bitrate=   0.2kbits/s speed=0.0233x elapsed=0:01:27.37    \nframe=  125 fps=1.4 q=26.1 size=       0KiB time=00:00:02.05 bitrate=   0.2kbits/s speed=0.0233x elapsed=0:01:27.89    \nframe=  126 fps=1.4 q=25.9 size=       0KiB time=00:00:02.06 bitrate=   0.2kbits/s speed=0.0234x elapsed=0:01:28.41    \nframe=  127 fps=1.4 q=18.2 size=       0KiB time=00:00:02.08 bitrate=   0.2kbits/s speed=0.0234x elapsed=0:01:28.93    \nframe=  128 fps=1.4 q=24.2 size=       0KiB time=00:00:02.10 bitrate=   0.2kbits/s speed=0.0235x elapsed=0:01:29.46    \nframe=  129 fps=1.4 q=27.2 size=       0KiB time=00:00:02.11 bitrate=   0.2kbits/s speed=0.0235x elapsed=0:01:30.00    \nframe=  129 fps=1.4 q=27.2 size=       0KiB time=00:00:02.11 bitrate=   0.2kbits/s speed=0.0234x elapsed=0:01:30.54    \nframe=  130 fps=1.4 q=26.5 size=       0KiB time=00:00:02.13 bitrate=   0.2kbits/s speed=0.0234x elapsed=0:01:31.08    \nframe=  131 fps=1.4 q=26.8 size=       0KiB time=00:00:02.15 bitrate=   0.2kbits/s speed=0.0235x elapsed=0:01:31.61    \nframe=  132 fps=1.4 q=17.9 size=       0KiB time=00:00:02.16 bitrate=   0.2kbits/s speed=0.0235x elapsed=0:01:32.15    \nframe=  132 fps=1.4 q=17.9 size=       0KiB time=00:00:02.16 bitrate=   0.2kbits/s speed=0.0234x elapsed=0:01:32.70    \nframe=  133 fps=1.4 q=24.5 size=       0KiB time=00:00:02.18 bitrate=   0.2kbits/s speed=0.0234x elapsed=0:01:33.21    \nframe=  135 fps=1.4 q=26.3 size=       0KiB time=00:00:02.21 bitrate=   0.2kbits/s speed=0.0236x elapsed=0:01:33.73    \nframe=  136 fps=1.4 q=26.4 size=       0KiB time=00:00:02.23 bitrate=   0.2kbits/s speed=0.0237x elapsed=0:01:34.25    \nframe=  137 fps=1.4 q=18.0 size=       0KiB time=00:00:02.25 bitrate=   0.2kbits/s speed=0.0237x elapsed=0:01:34.76    \nframe=  138 fps=1.4 q=24.9 size=       0KiB time=00:00:02.26 bitrate=   0.2kbits/s speed=0.0238x elapsed=0:01:35.28    \nframe=  140 fps=1.5 q=25.8 size=       0KiB time=00:00:02.30 bitrate=   0.2kbits/s speed=0.024x elapsed=0:01:35.80    \nframe=  140 fps=1.5 q=25.8 size=       0KiB time=00:00:02.30 bitrate=   0.2kbits/s speed=0.0239x elapsed=0:01:36.33    \nframe=  141 fps=1.5 q=25.7 size=       0KiB time=00:00:02.31 bitrate=   0.2kbits/s speed=0.0239x elapsed=0:01:36.85    \nframe=  141 fps=1.4 q=25.7 size=       0KiB time=00:00:02.31 bitrate=   0.2kbits/s speed=0.0238x elapsed=0:01:37.38    \nframe=  143 fps=1.5 q=25.6 size=     256KiB time=00:00:02.35 bitrate= 892.6kbits/s speed=0.024x elapsed=0:01:37.90    \nframe=  144 fps=1.5 q=26.2 size=     256KiB time=00:00:02.36 bitrate= 886.3kbits/s speed=0.024x elapsed=0:01:38.42    \nframe=  145 fps=1.5 q=25.9 size=     256KiB time=00:00:02.38 bitrate= 880.1kbits/s speed=0.0241x elapsed=0:01:38.93    \nframe=  147 fps=1.5 q=18.2 size=     256KiB time=00:00:02.41 bitrate= 867.9kbits/s speed=0.0243x elapsed=0:01:39.45    \nframe=  148 fps=1.5 q=24.5 size=     256KiB time=00:00:02.43 bitrate= 862.0kbits/s speed=0.0243x elapsed=0:01:39.97    \nframe=  148 fps=1.5 q=24.5 size=     256KiB time=00:00:02.43 bitrate= 862.0kbits/s speed=0.0242x elapsed=0:01:40.49    \nframe=  150 fps=1.5 q=24.2 size=     256KiB time=00:00:02.46 bitrate= 850.3kbits/s speed=0.0244x elapsed=0:01:41.02    \nframe=  150 fps=1.5 q=24.2 size=     256KiB time=00:00:02.46 bitrate= 850.3kbits/s speed=0.0243x elapsed=0:01:41.52    \nframe=  151 fps=1.5 q=25.1 size=     256KiB time=00:00:02.48 bitrate= 844.6kbits/s speed=0.0243x elapsed=0:01:42.04    \nframe=  152 fps=1.5 q=18.2 size=     256KiB time=00:00:02.50 bitrate= 839.0kbits/s speed=0.0244x elapsed=0:01:42.56    \nframe=  154 fps=1.5 q=25.8 size=     256KiB time=00:00:02.53 bitrate= 828.0kbits/s speed=0.0246x elapsed=0:01:43.08    \nframe=  154 fps=1.5 q=25.8 size=     256KiB time=00:00:02.53 bitrate= 828.0kbits/s speed=0.0245x elapsed=0:01:43.61    \nframe=  155 fps=1.5 q=25.1 size=     256KiB time=00:00:02.55 bitrate= 822.6kbits/s speed=0.0245x elapsed=0:01:44.15    \nframe=  156 fps=1.5 q=24.2 size=     256KiB time=00:00:02.56 bitrate= 817.2kbits/s speed=0.0245x elapsed=0:01:44.67    \nframe=  158 fps=1.5 q=24.1 size=     256KiB time=00:00:02.58 bitrate= 811.9kbits/s speed=0.0246x elapsed=0:01:45.19    \nframe=  158 fps=1.5 q=24.1 size=     256KiB time=00:00:02.60 bitrate= 806.7kbits/s speed=0.0246x elapsed=0:01:45.73    \nframe=  159 fps=1.5 q=25.1 size=     256KiB time=00:00:02.61 bitrate= 801.6kbits/s speed=0.0246x elapsed=0:01:46.27    \nframe=  159 fps=1.5 q=25.1 size=     256KiB time=00:00:02.61 bitrate= 801.6kbits/s speed=0.0245x elapsed=0:01:46.80    \nframe=  160 fps=1.5 q=24.1 size=     256KiB time=00:00:02.63 bitrate= 796.5kbits/s speed=0.0245x elapsed=0:01:47.32    \nframe=  161 fps=1.5 q=25.0 size=     256KiB time=00:00:02.65 bitrate= 791.5kbits/s speed=0.0246x elapsed=0:01:47.86    \nframe=  161 fps=1.5 q=25.0 size=     256KiB time=00:00:02.65 bitrate= 791.5kbits/s speed=0.0244x elapsed=0:01:48.39    \nframe=  161 fps=1.5 q=25.0 size=     256KiB time=00:00:02.65 bitrate= 791.5kbits/s speed=0.0243x elapsed=0:01:48.92    \nframe=  161 fps=1.5 q=25.0 size=     256KiB time=00:00:02.65 bitrate= 791.5kbits/s speed=0.0242x elapsed=0:01:49.44    \nframe=  162 fps=1.5 q=18.2 size=     256KiB time=00:00:02.66 bitrate= 786.6kbits/s speed=0.0242x elapsed=0:01:49.97    \nframe=  162 fps=1.5 q=18.2 size=     256KiB time=00:00:02.66 bitrate= 786.6kbits/s speed=0.0241x elapsed=0:01:50.49    \nframe=  162 fps=1.5 q=18.2 size=     256KiB time=00:00:02.66 bitrate= 786.6kbits/s speed=0.024x elapsed=0:01:51.01    \nframe=  163 fps=1.5 q=24.2 size=     256KiB time=00:00:02.68 bitrate= 781.7kbits/s speed=0.0241x elapsed=0:01:51.53    \nframe=  165 fps=1.5 q=24.7 size=     256KiB time=00:00:02.71 bitrate= 772.1kbits/s speed=0.0242x elapsed=0:01:52.04    \nframe=  165 fps=1.5 q=24.7 size=     256KiB time=00:00:02.71 bitrate= 772.1kbits/s speed=0.0241x elapsed=0:01:52.57    \nframe=  165 fps=1.5 q=24.7 size=     256KiB time=00:00:02.71 bitrate= 772.1kbits/s speed=0.024x elapsed=0:01:53.10    \nframe=  165 fps=1.5 q=24.7 size=     256KiB time=00:00:02.71 bitrate= 772.1kbits/s speed=0.0239x elapsed=0:01:53.61    \nframe=  165 fps=1.4 q=24.7 size=     256KiB time=00:00:02.71 bitrate= 772.1kbits/s speed=0.0238x elapsed=0:01:54.14    \nframe=  166 fps=1.4 q=24.2 size=     256KiB time=00:00:02.73 bitrate= 767.4kbits/s speed=0.0238x elapsed=0:01:54.68    \nframe=  167 fps=1.4 q=18.2 size=     256KiB time=00:00:02.75 bitrate= 762.7kbits/s speed=0.0239x elapsed=0:01:55.20    \nframe=  169 fps=1.5 q=25.6 size=     256KiB time=00:00:02.78 bitrate= 753.6kbits/s speed=0.024x elapsed=0:01:55.74    \nframe=  169 fps=1.5 q=25.6 size=     256KiB time=00:00:02.78 bitrate= 753.6kbits/s speed=0.0239x elapsed=0:01:56.26    \nframe=  170 fps=1.5 q=24.7 size=     256KiB time=00:00:02.80 bitrate= 749.1kbits/s speed=0.024x elapsed=0:01:56.78    \nframe=  170 fps=1.4 q=24.7 size=     256KiB time=00:00:02.80 bitrate= 749.1kbits/s speed=0.0239x elapsed=0:01:57.30    \nframe=  171 fps=1.5 q=25.0 size=     256KiB time=00:00:02.81 bitrate= 744.7kbits/s speed=0.0239x elapsed=0:01:57.82    \nframe=  171 fps=1.4 q=25.0 size=     256KiB time=00:00:02.81 bitrate= 744.7kbits/s speed=0.0238x elapsed=0:01:58.34    \nframe=  173 fps=1.5 q=24.1 size=     256KiB time=00:00:02.85 bitrate= 736.0kbits/s speed=0.024x elapsed=0:01:58.86    \nframe=  173 fps=1.4 q=24.1 size=     256KiB time=00:00:02.85 bitrate= 736.0kbits/s speed=0.0239x elapsed=0:01:59.39    \nframe=  174 fps=1.5 q=24.5 size=     256KiB time=00:00:02.86 bitrate= 731.7kbits/s speed=0.0239x elapsed=0:01:59.91    \nframe=  174 fps=1.4 q=24.5 size=     256KiB time=00:00:02.86 bitrate= 731.7kbits/s speed=0.0238x elapsed=0:02:00.42    \nframe=  175 fps=1.4 q=23.2 size=     256KiB time=00:00:02.88 bitrate= 727.5kbits/s speed=0.0238x elapsed=0:02:00.93    \nframe=  176 fps=1.4 q=23.8 size=     256KiB time=00:00:02.90 bitrate= 723.3kbits/s speed=0.0239x elapsed=0:02:01.46    \nframe=  176 fps=1.4 q=23.8 size=     256KiB time=00:00:02.90 bitrate= 723.3kbits/s speed=0.0238x elapsed=0:02:01.96    \nframe=  177 fps=1.4 q=17.9 size=     256KiB time=00:00:02.91 bitrate= 719.1kbits/s speed=0.0238x elapsed=0:02:02.48    \nframe=  178 fps=1.4 q=24.0 size=     256KiB time=00:00:02.93 bitrate= 715.1kbits/s speed=0.0238x elapsed=0:02:03.00    \nframe=  178 fps=1.4 q=24.0 size=     256KiB time=00:00:02.93 bitrate= 715.1kbits/s speed=0.0237x elapsed=0:02:03.54    \nframe=  179 fps=1.4 q=24.0 size=     256KiB time=00:00:02.95 bitrate= 711.0kbits/s speed=0.0238x elapsed=0:02:04.05    \nframe=  180 fps=1.4 q=24.3 size=     256KiB time=00:00:02.96 bitrate= 707.0kbits/s speed=0.0238x elapsed=0:02:04.57    \nframe=  180 fps=1.4 q=24.3 size=     256KiB time=00:00:02.96 bitrate= 707.0kbits/s speed=0.0237x elapsed=0:02:05.10    \nframe=  181 fps=1.4 q=24.1 size=     256KiB time=00:00:02.98 bitrate= 703.1kbits/s speed=0.0237x elapsed=0:02:05.62    \nframe=  182 fps=1.4 q=17.9 size=     256KiB time=00:00:03.00 bitrate= 699.2kbits/s speed=0.0238x elapsed=0:02:06.17    \nframe=  183 fps=1.4 q=24.1 size=     256KiB time=00:00:03.01 bitrate= 695.3kbits/s speed=0.0238x elapsed=0:02:06.71    \nframe=  183 fps=1.4 q=24.1 size=     256KiB time=00:00:03.01 bitrate= 695.3kbits/s speed=0.0237x elapsed=0:02:07.26    \nframe=  183 fps=1.4 q=24.1 size=     256KiB time=00:00:03.01 bitrate= 695.3kbits/s speed=0.0236x elapsed=0:02:07.80    \nframe=  183 fps=1.4 q=24.1 size=     256KiB time=00:00:03.01 bitrate= 695.3kbits/s speed=0.0235x elapsed=0:02:08.35    \nframe=  184 fps=1.4 q=24.9 size=     256KiB time=00:00:03.03 bitrate= 691.5kbits/s speed=0.0235x elapsed=0:02:08.86    \nframe=  186 fps=1.4 q=24.5 size=     256KiB time=00:00:03.06 bitrate= 684.0kbits/s speed=0.0237x elapsed=0:02:09.38    \nframe=  186 fps=1.4 q=24.5 size=     256KiB time=00:00:03.06 bitrate= 684.0kbits/s speed=0.0236x elapsed=0:02:09.90    \nframe=  187 fps=1.4 q=18.0 size=     256KiB time=00:00:03.08 bitrate= 680.3kbits/s speed=0.0236x elapsed=0:02:10.44    \nframe=  189 fps=1.4 q=25.6 size=     256KiB time=00:00:03.11 bitrate= 673.0kbits/s speed=0.0238x elapsed=0:02:10.95    \nframe=  189 fps=1.4 q=25.6 size=     256KiB time=00:00:03.11 bitrate= 673.0kbits/s speed=0.0237x elapsed=0:02:11.49    \nframe=  191 fps=1.4 q=24.3 size=     256KiB time=00:00:03.15 bitrate= 665.9kbits/s speed=0.0239x elapsed=0:02:12.01    \nframe=  191 fps=1.4 q=24.3 size=     256KiB time=00:00:03.15 bitrate= 665.9kbits/s speed=0.0238x elapsed=0:02:12.55    \nframe=  192 fps=1.4 q=18.0 size=     256KiB time=00:00:03.16 bitrate= 662.4kbits/s speed=0.0238x elapsed=0:02:13.06    \nframe=  192 fps=1.4 q=18.0 size=     256KiB time=00:00:03.16 bitrate= 662.4kbits/s speed=0.0237x elapsed=0:02:13.61    \nframe=  193 fps=1.4 q=22.6 size=     256KiB time=00:00:03.18 bitrate= 658.9kbits/s speed=0.0237x elapsed=0:02:14.13    \nframe=  194 fps=1.4 q=25.1 size=     256KiB time=00:00:03.20 bitrate= 655.5kbits/s speed=0.0238x elapsed=0:02:14.63    \nframe=  195 fps=1.4 q=24.3 size=     256KiB time=00:00:03.21 bitrate= 652.1kbits/s speed=0.0238x elapsed=0:02:15.15    \nframe=  196 fps=1.4 q=23.6 size=     256KiB time=00:00:03.23 bitrate= 648.7kbits/s speed=0.0238x elapsed=0:02:15.66    \nframe=  196 fps=1.4 q=23.6 size=     256KiB time=00:00:03.23 bitrate= 648.7kbits/s speed=0.0237x elapsed=0:02:16.19    \nframe=  198 fps=1.4 q=24.5 size=     256KiB time=00:00:03.26 bitrate= 642.1kbits/s speed=0.0239x elapsed=0:02:16.72    \nframe=  199 fps=1.4 q=24.6 size=     256KiB time=00:00:03.28 bitrate= 638.8kbits/s speed=0.0239x elapsed=0:02:17.24    \nframe=  200 fps=1.5 q=24.0 size=     256KiB time=00:00:03.30 bitrate= 635.6kbits/s speed=0.024x elapsed=0:02:17.76    \nframe=  200 fps=1.4 q=24.0 size=     256KiB time=00:00:03.30 bitrate= 635.6kbits/s speed=0.0239x elapsed=0:02:18.28    \nframe=  201 fps=1.4 q=24.1 size=     256KiB time=00:00:03.31 bitrate= 632.4kbits/s speed=0.0239x elapsed=0:02:18.80    \nframe=  202 fps=1.4 q=17.8 size=     256KiB time=00:00:03.33 bitrate= 629.3kbits/s speed=0.0239x elapsed=0:02:19.31    \nframe=  204 fps=1.5 q=25.1 size=     256KiB time=00:00:03.36 bitrate= 623.0kbits/s speed=0.0241x elapsed=0:02:19.83    \nframe=  204 fps=1.5 q=25.1 size=     256KiB time=00:00:03.36 bitrate= 623.0kbits/s speed=0.024x elapsed=0:02:20.36    \nframe=  205 fps=1.5 q=25.0 size=     256KiB time=00:00:03.38 bitrate= 620.0kbits/s speed=0.024x elapsed=0:02:20.89    \nframe=  206 fps=1.5 q=25.1 size=     256KiB time=00:00:03.40 bitrate= 616.9kbits/s speed=0.024x elapsed=0:02:21.41    \nframe=  207 fps=1.5 q=17.7 size=     256KiB time=00:00:03.41 bitrate= 613.9kbits/s speed=0.0241x elapsed=0:02:21.91    \nframe=  208 fps=1.5 q=24.4 size=     256KiB time=00:00:03.43 bitrate= 610.9kbits/s speed=0.0241x elapsed=0:02:22.44    \nframe=  210 fps=1.5 q=24.8 size=     256KiB time=00:00:03.46 bitrate= 605.0kbits/s speed=0.0243x elapsed=0:02:22.94    \nframe=  211 fps=1.5 q=23.9 size=     256KiB time=00:00:03.48 bitrate= 602.2kbits/s speed=0.0243x elapsed=0:02:23.47    \nframe=  211 fps=1.5 q=23.9 size=     256KiB time=00:00:03.48 bitrate= 602.2kbits/s speed=0.0242x elapsed=0:02:23.98    \nframe=  212 fps=1.5 q=17.6 size=     256KiB time=00:00:03.50 bitrate= 599.3kbits/s speed=0.0242x elapsed=0:02:24.50    \nframe=  212 fps=1.5 q=17.6 size=     256KiB time=00:00:03.50 bitrate= 599.3kbits/s speed=0.0241x elapsed=0:02:25.03    \nframe=  212 fps=1.5 q=17.6 size=     256KiB time=00:00:03.50 bitrate= 599.3kbits/s speed=0.024x elapsed=0:02:25.59    \nframe=  214 fps=1.5 q=25.1 size=     256KiB time=00:00:03.53 bitrate= 593.6kbits/s speed=0.0242x elapsed=0:02:26.10    \nframe=  215 fps=1.5 q=25.1 size=     256KiB time=00:00:03.55 bitrate= 590.8kbits/s speed=0.0242x elapsed=0:02:26.63    \nframe=  216 fps=1.5 q=24.4 size=     256KiB time=00:00:03.56 bitrate= 588.1kbits/s speed=0.0242x elapsed=0:02:27.15    \nframe=  216 fps=1.5 q=24.4 size=     256KiB time=00:00:03.56 bitrate= 588.1kbits/s speed=0.0242x elapsed=0:02:27.68    \nframe=  216 fps=1.5 q=24.4 size=     256KiB time=00:00:03.56 bitrate= 588.1kbits/s speed=0.0241x elapsed=0:02:28.20    \nframe=  217 fps=1.5 q=18.2 size=     256KiB time=00:00:03.58 bitrate= 585.4kbits/s speed=0.0241x elapsed=0:02:28.71    \nframe=  217 fps=1.5 q=18.2 size=     256KiB time=00:00:03.58 bitrate= 585.4kbits/s speed=0.024x elapsed=0:02:29.24    \nframe=  219 fps=1.5 q=25.3 size=     256KiB time=00:00:03.61 bitrate= 580.0kbits/s speed=0.0241x elapsed=0:02:29.76    \nframe=  219 fps=1.5 q=25.3 size=     256KiB time=00:00:03.61 bitrate= 580.0kbits/s speed=0.0241x elapsed=0:02:30.28    \nframe=  220 fps=1.5 q=23.7 size=     256KiB time=00:00:03.63 bitrate= 577.3kbits/s speed=0.0241x elapsed=0:02:30.79    \nframe=  220 fps=1.5 q=23.7 size=     256KiB time=00:00:03.63 bitrate= 577.3kbits/s speed=0.024x elapsed=0:02:31.32    \nframe=  221 fps=1.5 q=24.9 size=     256KiB time=00:00:03.65 bitrate= 574.7kbits/s speed=0.024x elapsed=0:02:31.86    \nframe=  221 fps=1.5 q=24.9 size=     256KiB time=00:00:03.65 bitrate= 574.7kbits/s speed=0.0239x elapsed=0:02:32.40    \nframe=  221 fps=1.4 q=24.9 size=     256KiB time=00:00:03.65 bitrate= 574.7kbits/s speed=0.0239x elapsed=0:02:32.93    \nframe=  222 fps=1.4 q=17.9 size=     256KiB time=00:00:03.66 bitrate= 572.0kbits/s speed=0.0239x elapsed=0:02:33.44    \nframe=  222 fps=1.4 q=17.9 size=     256KiB time=00:00:03.66 bitrate= 572.0kbits/s speed=0.0238x elapsed=0:02:33.97    \nframe=  222 fps=1.4 q=17.9 size=     256KiB time=00:00:03.66 bitrate= 572.0kbits/s speed=0.0237x elapsed=0:02:34.49    \nframe=  223 fps=1.4 q=23.4 size=     256KiB time=00:00:03.68 bitrate= 569.5kbits/s speed=0.0238x elapsed=0:02:35.04    \nframe=  223 fps=1.4 q=23.4 size=     256KiB time=00:00:03.68 bitrate= 569.5kbits/s speed=0.0237x elapsed=0:02:35.56    \nframe=  224 fps=1.4 q=25.3 size=     256KiB time=00:00:03.70 bitrate= 566.9kbits/s speed=0.0237x elapsed=0:02:36.08    \nframe=  225 fps=1.4 q=24.6 size=     256KiB time=00:00:03.71 bitrate= 564.4kbits/s speed=0.0237x elapsed=0:02:36.63    \nframe=  225 fps=1.4 q=24.6 size=     256KiB time=00:00:03.71 bitrate= 564.4kbits/s speed=0.0236x elapsed=0:02:37.17    \nframe=  226 fps=1.4 q=26.5 size=     256KiB time=00:00:03.73 bitrate= 561.8kbits/s speed=0.0237x elapsed=0:02:37.69    \nframe=  226 fps=1.4 q=26.5 size=     256KiB time=00:00:03.73 bitrate= 561.8kbits/s speed=0.0236x elapsed=0:02:38.21    \nframe=  227 fps=1.4 q=19.3 size=     256KiB time=00:00:03.75 bitrate= 559.3kbits/s speed=0.0236x elapsed=0:02:38.73    \nframe=  228 fps=1.4 q=27.4 size=     256KiB time=00:00:03.76 bitrate= 556.9kbits/s speed=0.0237x elapsed=0:02:39.25    \nframe=  228 fps=1.4 q=27.4 size=     256KiB time=00:00:03.76 bitrate= 556.9kbits/s speed=0.0236x elapsed=0:02:39.77    \nframe=  229 fps=1.4 q=28.1 size=     256KiB time=00:00:03.78 bitrate= 554.4kbits/s speed=0.0236x elapsed=0:02:40.31    \nframe=  229 fps=1.4 q=28.1 size=     256KiB time=00:00:03.78 bitrate= 554.4kbits/s speed=0.0235x elapsed=0:02:40.84    \nframe=  230 fps=1.4 q=28.3 size=     256KiB time=00:00:03.80 bitrate= 552.0kbits/s speed=0.0235x elapsed=0:02:41.38    \nframe=  230 fps=1.4 q=28.3 size=     256KiB time=00:00:03.80 bitrate= 552.0kbits/s speed=0.0235x elapsed=0:02:41.92    \nframe=  231 fps=1.4 q=28.9 size=     256KiB time=00:00:03.81 bitrate= 549.6kbits/s speed=0.0235x elapsed=0:02:42.43    \nframe=  231 fps=1.4 q=28.9 size=     256KiB time=00:00:03.81 bitrate= 549.6kbits/s speed=0.0234x elapsed=0:02:42.95    \nframe=  232 fps=1.4 q=19.4 size=     256KiB time=00:00:03.83 bitrate= 547.2kbits/s speed=0.0234x elapsed=0:02:43.48    \nframe=  233 fps=1.4 q=27.1 size=     256KiB time=00:00:03.85 bitrate= 544.8kbits/s speed=0.0235x elapsed=0:02:44.01    \nframe=  234 fps=1.4 q=28.7 size=     256KiB time=00:00:03.86 bitrate= 542.5kbits/s speed=0.0235x elapsed=0:02:44.52    \nframe=  235 fps=1.4 q=28.6 size=     256KiB time=00:00:03.88 bitrate= 540.1kbits/s speed=0.0235x elapsed=0:02:45.06    \nframe=  235 fps=1.4 q=28.6 size=     256KiB time=00:00:03.88 bitrate= 540.1kbits/s speed=0.0235x elapsed=0:02:45.57    \nframe=  237 fps=1.4 q=19.3 size=     256KiB time=00:00:03.91 bitrate= 535.5kbits/s speed=0.0236x elapsed=0:02:46.12    \nframe=  237 fps=1.4 q=19.3 size=     256KiB time=00:00:03.91 bitrate= 535.5kbits/s speed=0.0235x elapsed=0:02:46.63    \nframe=  238 fps=1.4 q=27.1 size=     256KiB time=00:00:03.93 bitrate= 533.3kbits/s speed=0.0235x elapsed=0:02:47.16    \nframe=  238 fps=1.4 q=27.1 size=     256KiB time=00:00:03.93 bitrate= 533.3kbits/s speed=0.0235x elapsed=0:02:47.67    \nframe=  240 fps=1.4 q=28.7 size=     256KiB time=00:00:03.96 bitrate= 528.8kbits/s speed=0.0236x elapsed=0:02:48.18    \nframe=  241 fps=1.4 q=28.6 size=     256KiB time=00:00:03.98 bitrate= 526.6kbits/s speed=0.0236x elapsed=0:02:48.71    \nframe=  241 fps=1.4 q=28.6 size=     256KiB time=00:00:03.98 bitrate= 526.6kbits/s speed=0.0235x elapsed=0:02:49.24    \nframe=  241 fps=1.4 q=28.6 size=     256KiB time=00:00:03.98 bitrate= 526.6kbits/s speed=0.0235x elapsed=0:02:49.76    \nframe=  242 fps=1.4 q=18.7 size=     256KiB time=00:00:04.00 bitrate= 524.4kbits/s speed=0.0235x elapsed=0:02:50.28    \nframe=  242 fps=1.4 q=18.7 size=     256KiB time=00:00:04.00 bitrate= 524.4kbits/s speed=0.0234x elapsed=0:02:50.79    \nframe=  244 fps=1.4 q=28.6 size=     256KiB time=00:00:04.03 bitrate= 520.0kbits/s speed=0.0235x elapsed=0:02:51.32    \nframe=  244 fps=1.4 q=28.6 size=     256KiB time=00:00:04.03 bitrate= 520.0kbits/s speed=0.0235x elapsed=0:02:51.84    \nframe=  244 fps=1.4 q=28.6 size=     256KiB time=00:00:04.03 bitrate= 520.0kbits/s speed=0.0234x elapsed=0:02:52.35    \nframe=  245 fps=1.4 q=28.4 size=     256KiB time=00:00:04.05 bitrate= 517.9kbits/s speed=0.0234x elapsed=0:02:52.87    \nframe=  245 fps=1.4 q=28.4 size=     256KiB time=00:00:04.05 bitrate= 517.9kbits/s speed=0.0234x elapsed=0:02:53.40    \nframe=  246 fps=1.4 q=28.4 size=     256KiB time=00:00:04.06 bitrate= 515.8kbits/s speed=0.0234x elapsed=0:02:53.94    \nframe=  246 fps=1.4 q=28.4 size=     256KiB time=00:00:04.06 bitrate= 515.8kbits/s speed=0.0233x elapsed=0:02:54.45    \nframe=  248 fps=1.4 q=28.1 size=     256KiB time=00:00:04.10 bitrate= 511.6kbits/s speed=0.0234x elapsed=0:02:54.97    \nframe=  249 fps=1.4 q=29.8 size=     256KiB time=00:00:04.11 bitrate= 509.5kbits/s speed=0.0235x elapsed=0:02:55.49    \nframe=  251 fps=1.4 q=27.3 size=     256KiB time=00:00:04.15 bitrate= 505.4kbits/s speed=0.0236x elapsed=0:02:56.02    \nframe=  252 fps=1.4 q=18.6 size=     256KiB time=00:00:04.16 bitrate= 503.4kbits/s speed=0.0236x elapsed=0:02:56.54    \nframe=  252 fps=1.4 q=18.6 size=     256KiB time=00:00:04.16 bitrate= 503.4kbits/s speed=0.0235x elapsed=0:02:57.06    \nframe=  252 fps=1.4 q=18.6 size=     256KiB time=00:00:04.16 bitrate= 503.4kbits/s speed=0.0235x elapsed=0:02:57.59    \nframe=  252 fps=1.4 q=18.6 size=     256KiB time=00:00:04.16 bitrate= 503.4kbits/s speed=0.0234x elapsed=0:02:58.13    \nframe=  253 fps=1.4 q=25.5 size=     256KiB time=00:00:04.18 bitrate= 501.4kbits/s speed=0.0234x elapsed=0:02:58.66    \nframe=  253 fps=1.4 q=25.5 size=     256KiB time=00:00:04.18 bitrate= 501.4kbits/s speed=0.0233x elapsed=0:02:59.19    \nframe=  254 fps=1.4 q=26.5 size=     256KiB time=00:00:04.20 bitrate= 499.4kbits/s speed=0.0234x elapsed=0:02:59.71    \nframe=  255 fps=1.4 q=26.4 size=     256KiB time=00:00:04.21 bitrate= 497.4kbits/s speed=0.0234x elapsed=0:03:00.24    \nframe=  257 fps=1.4 q=19.6 size=     256KiB time=00:00:04.25 bitrate= 493.5kbits/s speed=0.0235x elapsed=0:03:00.75    \nframe=  260 fps=1.4 q=28.9 size=     256KiB time=00:00:04.30 bitrate= 487.8kbits/s speed=0.0237x elapsed=0:03:01.27    \nframe=  261 fps=1.4 q=28.7 size=     256KiB time=00:00:04.31 bitrate= 485.9kbits/s speed=0.0237x elapsed=0:03:01.77    \nframe=  263 fps=1.4 q=27.8 size=     512KiB time=00:00:04.35 bitrate= 964.3kbits/s speed=0.0239x elapsed=0:03:02.29    \nframe=  265 fps=1.4 q=26.8 size=     512KiB time=00:00:04.38 bitrate= 957.0kbits/s speed=0.024x elapsed=0:03:02.82    \nframe=  267 fps=1.5 q=18.4 size=     512KiB time=00:00:04.41 bitrate= 949.7kbits/s speed=0.0241x elapsed=0:03:03.32    \nframe=  269 fps=1.5 q=27.6 size=     512KiB time=00:00:04.45 bitrate= 942.6kbits/s speed=0.0242x elapsed=0:03:03.84    \nframe=  270 fps=1.5 q=26.3 size=     512KiB time=00:00:04.46 bitrate= 939.1kbits/s speed=0.0242x elapsed=0:03:04.36    \nframe=  273 fps=1.5 q=26.5 size=     512KiB time=00:00:04.51 bitrate= 928.7kbits/s speed=0.0244x elapsed=0:03:04.86    \nframe=  274 fps=1.5 q=27.8 size=     512KiB time=00:00:04.53 bitrate= 925.3kbits/s speed=0.0245x elapsed=0:03:05.39    \nframe=  276 fps=1.5 q=25.2 size=     512KiB time=00:00:04.56 bitrate= 918.5kbits/s speed=0.0246x elapsed=0:03:05.91    \nframe=  278 fps=1.5 q=25.1 size=     512KiB time=00:00:04.60 bitrate= 911.9kbits/s speed=0.0247x elapsed=0:03:06.41    \nframe=  279 fps=1.5 q=26.3 size=     512KiB time=00:00:04.61 bitrate= 908.6kbits/s speed=0.0247x elapsed=0:03:06.93    \nframe=  281 fps=1.5 q=26.1 size=     512KiB time=00:00:04.65 bitrate= 902.1kbits/s speed=0.0248x elapsed=0:03:07.45    \nframe=  283 fps=1.5 q=24.6 size=     512KiB time=00:00:04.68 bitrate= 895.7kbits/s speed=0.0249x elapsed=0:03:07.96    \nframe=  285 fps=1.5 q=25.6 size=     512KiB time=00:00:04.71 bitrate= 889.3kbits/s speed=0.025x elapsed=0:03:08.48    \nframe=  287 fps=1.5 q=18.3 size=     512KiB time=00:00:04.75 bitrate= 883.1kbits/s speed=0.0251x elapsed=0:03:09.00    \nframe=  289 fps=1.5 q=23.7 size=     512KiB time=00:00:04.78 bitrate= 876.9kbits/s speed=0.0252x elapsed=0:03:09.51    \nframe=  290 fps=1.5 q=23.7 size=     512KiB time=00:00:04.80 bitrate= 873.9kbits/s speed=0.0253x elapsed=0:03:10.03    \nframe=  290 fps=1.5 q=23.7 size=     512KiB time=00:00:04.80 bitrate= 873.9kbits/s speed=0.0252x elapsed=0:03:10.54    \nframe=  291 fps=1.5 q=24.1 size=     512KiB time=00:00:04.81 bitrate= 870.9kbits/s speed=0.0252x elapsed=0:03:11.06    \nframe=  293 fps=1.5 q=20.6 size=     512KiB time=00:00:04.85 bitrate= 864.9kbits/s speed=0.0253x elapsed=0:03:11.58    \nframe=  294 fps=1.5 q=23.1 size=     512KiB time=00:00:04.86 bitrate= 861.9kbits/s speed=0.0253x elapsed=0:03:12.09    \nframe=  295 fps=1.5 q=20.9 size=     512KiB time=00:00:04.88 bitrate= 859.0kbits/s speed=0.0254x elapsed=0:03:12.61    \nframe=  296 fps=1.5 q=19.7 size=     512KiB time=00:00:04.90 bitrate= 856.1kbits/s speed=0.0254x elapsed=0:03:13.13    \nframe=  299 fps=1.5 q=19.2 size=     512KiB time=00:00:04.95 bitrate= 847.4kbits/s speed=0.0256x elapsed=0:03:13.63    \n[mp4 @ 0000019ad659ac00] Starting second pass: moving the moov atom to the beginning of the file\n[out#0/mp4 @ 0000019ad659aac0] video:589KiB audio:0KiB subtitle:0KiB other streams:0KiB global headers:2KiB muxing overhead: 1.127496%\nframe=  300 fps=1.5 q=22.1 Lsize=     596KiB time=00:00:04.96 bitrate= 982.7kbits/s speed=0.0256x elapsed=0:03:13.72    \nx265 [info]: frame I:      2, Avg QP:29.46  kb/s: 6635.28 \nx265 [info]: frame P:     59, Avg QP:21.46  kb/s: 2916.04 \nx265 [info]: frame B:    239, Avg QP:26.26  kb/s: 433.82  \nx265 [info]: Weighted P-Frames: Y:0.0% UV:0.0%\n\nencoded 300 frames in 193.59s (1.55 fps), 963.33 kb/s, Avg QP:25.34\n",
  "seconds": 193.98313236236572,
  "probe_out": {}
}